<svg width="38" height="39" viewBox="0 0 38 39" fill="none" xmlns="http://www.w3.org/2000/svg">
<path d="M3.33386 28.6671C3.33386 26.2545 3.33386 25.0481 3.8775 24.1614C4.18143 23.6648 4.59816 23.248 5.0948 22.9441C5.97996 22.4005 7.18786 22.4005 9.60053 22.4005C12.0132 22.4005 13.2195 22.4005 14.1063 22.9441C14.6029 23.248 15.0196 23.6648 15.3236 24.1614C15.8672 25.0466 15.8672 26.2545 15.8672 28.6671C15.8672 31.0798 15.8672 32.2861 15.3236 33.1744C15.0196 33.6695 14.6029 34.0862 14.1063 34.3902C13.2211 34.9338 12.0132 34.9338 9.60053 34.9338C7.18786 34.9338 5.98153 34.9338 5.0948 34.3902C4.59871 34.0867 4.18156 33.6701 3.8775 33.1744C3.33386 32.2861 3.33386 31.0798 3.33386 28.6671ZM22.1339 28.6671C22.1339 26.2545 22.1339 25.0481 22.6775 24.1614C22.9814 23.6648 23.3982 23.248 23.8948 22.9441C24.78 22.4005 25.9879 22.4005 28.4005 22.4005C30.8132 22.4005 32.0195 22.4005 32.9078 22.9441C33.4029 23.248 33.8196 23.6648 34.1236 24.1614C34.6672 25.0466 34.6672 26.2545 34.6672 28.6671C34.6672 31.0798 34.6672 32.2861 34.1236 33.1744C33.8195 33.6696 33.403 34.0861 32.9078 34.3902C32.0195 34.9338 30.8132 34.9338 28.4005 34.9338C25.9879 34.9338 24.7815 34.9338 23.8948 34.3902C23.3987 34.0867 22.9816 33.6701 22.6775 33.1744C22.1339 32.2861 22.1339 31.0798 22.1339 28.6671ZM3.33386 9.86713C3.33386 7.45446 3.33386 6.24813 3.8775 5.3614C4.18143 4.86476 4.59816 4.44803 5.0948 4.1441C5.97996 3.60046 7.18786 3.60046 9.60053 3.60046C12.0132 3.60046 13.2195 3.60046 14.1063 4.1441C14.6029 4.44803 15.0196 4.86476 15.3236 5.3614C15.8672 6.24656 15.8672 7.45446 15.8672 9.86713C15.8672 12.2798 15.8672 13.4861 15.3236 14.3729C15.0196 14.8695 14.6029 15.2862 14.1063 15.5902C13.2211 16.1338 12.0132 16.1338 9.60053 16.1338C7.18786 16.1338 5.98153 16.1338 5.0948 15.5902C4.59853 15.2863 4.18136 14.8691 3.8775 14.3729C3.33386 13.4877 3.33386 12.2798 3.33386 9.86713ZM22.1339 9.86713C22.1339 7.45446 22.1339 6.24813 22.6775 5.3614C22.9814 4.86476 23.3982 4.44803 23.8948 4.1441C24.78 3.60046 25.9879 3.60046 28.4005 3.60046C30.8132 3.60046 32.0195 3.60046 32.9078 4.1441C33.4029 4.44803 33.8196 4.86476 34.1236 5.3614C34.6672 6.24656 34.6672 7.45446 34.6672 9.86713C34.6672 12.2798 34.6672 13.4861 34.1236 14.3729C33.8196 14.8695 33.4029 15.2862 32.9078 15.5902C32.0195 16.1338 30.8132 16.1338 28.4005 16.1338C25.9879 16.1338 24.7815 16.1338 23.8948 15.5902C23.3985 15.2863 22.9814 14.8691 22.6775 14.3729C22.1339 13.4877 22.1339 12.2798 22.1339 9.86713Z" stroke="#262162" stroke-width="1.5" stroke-linecap="round" stroke-linejoin="round"/>
</svg>
